<svg xmlns="http://www.w3.org/2000/svg" width="160" height="160" viewBox="0 0 160 160">
  <defs>
    <linearGradient id="g" x1="0" y1="0" x2="1" y2="1">
      <stop offset="0" stop-color="#0f1620"/>
      <stop offset="1" stop-color="#101722"/>
    </linearGradient>
  </defs>
  <rect width="160" height="160" fill="url(#g)"/>
  <g fill="none" stroke="#1e2a3a" stroke-width="1" opacity="0.6">
    <path d="M8 16 h40 v12 h20 v-12 h40 v24 h20 v-12 h20"/>
    <circle cx="30" cy="28" r="2" stroke="#2a3a50"/>
    <circle cx="70" cy="28" r="2" stroke="#2a3a50"/>
    <circle cx="110" cy="40" r="2" stroke="#2a3a50"/>
    <path d="M8 80 h30 v-12 h30 v24 h30 v-12 h30 v12 h24"/>
    <circle cx="48" cy="68" r="2" stroke="#2a3a50"/>
    <circle cx="78" cy="92" r="2" stroke="#2a3a50"/>
    <circle cx="138" cy="92" r="2" stroke="#2a3a50"/>
    <path d="M8 136 h24 v-12 h28 v12 h20 v-24 h40 v24 h24"/>
    <circle cx="40" cy="124" r="2" stroke="#2a3a50"/>
    <circle cx="88" cy="124" r="2" stroke="#2a3a50"/>
    <circle cx="128" cy="136" r="2" stroke="#2a3a50"/>
  </g>
</svg>